<svg width="19" height="19" viewBox="0 0 19 19" fill="none" xmlns="http://www.w3.org/2000/svg">
<path d="M9.48625 4.61988C6.79493 4.61988 4.62411 6.7907 4.62411 9.48202C4.62411 12.1733 6.79493 14.3442 9.48625 14.3442C12.1776 14.3442 14.3484 12.1733 14.3484 9.48202C14.3484 6.7907 12.1776 4.61988 9.48625 4.61988ZM9.48625 12.643C7.74705 12.643 6.32522 11.2254 6.32522 9.48202C6.32522 7.73859 7.74282 6.32099 9.48625 6.32099C11.2297 6.32099 12.6473 7.73859 12.6473 9.48202C12.6473 11.2254 11.2254 12.643 9.48625 12.643ZM15.6813 4.42099C15.6813 5.0515 15.1736 5.55507 14.5473 5.55507C14.323 5.55507 14.1037 5.48855 13.9172 5.36394C13.7307 5.23933 13.5854 5.06221 13.4995 4.85498C13.4137 4.64776 13.3912 4.41973 13.435 4.19974C13.4787 3.97975 13.5868 3.77768 13.7454 3.61908C13.904 3.46047 14.106 3.35246 14.326 3.30871C14.546 3.26495 14.774 3.28741 14.9813 3.37324C15.1885 3.45908 15.3656 3.60443 15.4902 3.79093C15.6148 3.97743 15.6813 4.19669 15.6813 4.42099ZM18.9016 5.57199C18.8297 4.05284 18.4827 2.70718 17.3698 1.5985C16.2611 0.489811 14.9154 0.142817 13.3963 0.0666481C11.8306 -0.022216 7.13769 -0.022216 5.57199 0.0666481C4.05707 0.138586 2.71141 0.485579 1.5985 1.59426C0.485579 2.70295 0.142817 4.04861 0.0666481 5.56776C-0.022216 7.13346 -0.022216 11.8263 0.0666481 13.392C0.138586 14.9112 0.485579 16.2568 1.5985 17.3655C2.71141 18.4742 4.05284 18.8212 5.57199 18.8974C7.13769 18.9862 11.8306 18.9862 13.3963 18.8974C14.9154 18.8254 16.2611 18.4785 17.3698 17.3655C18.4785 16.2568 18.8254 14.9112 18.9016 13.392C18.9905 11.8263 18.9905 7.13769 18.9016 5.57199ZM16.8789 15.072C16.718 15.4799 16.4749 15.8505 16.1648 16.1606C15.8547 16.4707 15.4842 16.7137 15.0762 16.8747C13.8279 17.3698 10.8658 17.2555 9.48625 17.2555C8.10674 17.2555 5.14037 17.3655 3.89627 16.8747C3.48832 16.7137 3.11779 16.4707 2.80769 16.1606C2.49759 15.8505 2.25453 15.4799 2.0936 15.072C1.5985 13.8237 1.71275 10.8615 1.71275 9.48202C1.71275 8.10251 1.60273 5.13614 2.0936 3.89204C2.25453 3.48408 2.49759 3.11356 2.80769 2.80346C3.11779 2.49336 3.48832 2.2503 3.89627 2.08937C5.1446 1.59426 8.10674 1.70852 9.48625 1.70852C10.8658 1.70852 13.8321 1.5985 15.0762 2.08937C15.4842 2.2503 15.8547 2.49336 16.1648 2.80346C16.4749 3.11356 16.718 3.48408 16.8789 3.89204C17.374 5.14037 17.2597 8.10251 17.2597 9.48202C17.2597 10.8615 17.374 13.8279 16.8789 15.072Z" fill="white"/>
</svg>
