<svg width="19" height="16" viewBox="0 0 19 16" fill="none" xmlns="http://www.w3.org/2000/svg">
<path d="M17.0469 3.84602C17.0588 4.01449 17.0588 4.18371 17.0588 4.35219C17.0588 9.5 13.1408 15.4316 5.9798 15.4316C3.77365 15.4316 1.7241 14.7925 0 13.6837C0.313574 13.7197 0.614902 13.732 0.940352 13.732C2.76057 13.732 4.43643 13.1167 5.77459 12.068C4.96207 12.0531 4.17449 11.7848 3.52183 11.3006C2.86918 10.8164 2.38404 10.1404 2.13416 9.36715C2.37736 9.40554 2.62309 9.42563 2.8693 9.42727C3.21887 9.42727 3.56844 9.37902 3.89389 9.29479C3.01223 9.11633 2.21952 8.63819 1.65041 7.94157C1.0813 7.24495 0.770882 6.3728 0.771875 5.47326V5.42502C1.31144 5.72614 1.91453 5.89551 2.53197 5.91932C1.99755 5.56388 1.55935 5.08178 1.25639 4.51595C0.953442 3.95013 0.795152 3.31815 0.795625 2.67633C0.795625 1.95307 0.988594 1.28992 1.32629 0.711387C2.30439 1.91521 3.52459 2.90003 4.90775 3.60197C6.29092 4.30391 7.80618 4.7073 9.35527 4.786C9.29516 4.49654 9.25879 4.19559 9.25879 3.89426C9.25879 1.74822 10.9948 0 13.153 0C14.2738 0 15.2868 0.470176 15.9982 1.2298C16.8703 1.06186 17.7066 0.743682 18.4697 0.289453C18.1793 1.18941 17.5705 1.95247 16.7575 2.43549C17.5412 2.35088 18.3009 2.13379 19 1.83246C18.4669 2.60873 17.8066 3.28947 17.0469 3.84602Z" fill="white"/>
</svg>
