<svg width="19" height="19" viewBox="0 0 19 19" fill="none" xmlns="http://www.w3.org/2000/svg">
<path d="M18.9577 1.04521V17.9082C18.9577 18.488 18.488 18.9535 17.9125 18.9535H13.08V11.6158H15.5428L15.9109 8.75523H13.0757V6.92717C13.0757 6.09777 13.3042 5.53497 14.4933 5.53497H16.0082V2.97483C15.7459 2.94098 14.8488 2.86058 13.7993 2.86058C11.6158 2.86058 10.1178 4.19354 10.1178 6.64365V8.75523H7.64655V11.6158H10.1178V18.9577H1.04521C0.46971 18.9577 0 18.488 0 17.9125V1.04521C0 0.46971 0.46971 0 1.04521 0H17.9082C18.488 0 18.9577 0.46971 18.9577 1.04521Z" fill="white"/>
</svg>
